<svg width="20" height="20" viewBox="0 0 20 20" fill="none" xmlns="http://www.w3.org/2000/svg">
<g id="ic/instructor">
<g id="Vector">
<path d="M15 15.7165H14.3667C13.7 15.7165 13.0667 15.9748 12.6 16.4415L11.175 17.8498C10.525 18.4915 9.46668 18.4915 8.81668 17.8498L7.39166 16.4415C6.925 15.9748 6.28333 15.7165 5.625 15.7165H5C3.61667 15.7165 2.5 14.6082 2.5 13.2415V4.1415C2.5 2.77484 3.61667 1.6665 5 1.6665H15C16.3833 1.6665 17.5 2.77484 17.5 4.1415V13.2332C17.5 14.5998 16.3833 15.7165 15 15.7165Z" stroke="#1E293B" stroke-width="1.5" stroke-linecap="round" stroke-linejoin="round"/>
<path d="M10.0583 7.45817C10.025 7.45817 9.97499 7.45817 9.93332 7.45817C9.05832 7.42484 8.36665 6.7165 8.36665 5.83317C8.36665 4.93317 9.09166 4.20817 9.99166 4.20817C10.8917 4.20817 11.6167 4.9415 11.6167 5.83317C11.625 6.7165 10.9333 7.43317 10.0583 7.45817Z" stroke="#1E293B" stroke-width="1.5" stroke-linecap="round" stroke-linejoin="round"/>
<path d="M7.70834 9.9665C6.6 10.7082 6.6 11.9165 7.70834 12.6582C8.96667 13.4998 11.0333 13.4998 12.2917 12.6582C13.4 11.9165 13.4 10.7082 12.2917 9.9665C11.0333 9.13317 8.975 9.13317 7.70834 9.9665Z" stroke="#1E293B" stroke-width="1.5" stroke-linecap="round" stroke-linejoin="round"/>
</g>
</g>
</svg>
