<svg width="24" height="24" viewBox="0 0 24 24" fill="none" xmlns="http://www.w3.org/2000/svg">
<g id="ic/logout">
<path id="Vector" opacity="0.25" d="M15 7.2V16.79C15 20 13 22 9.8 22H7.21C4.01 22 2.01 20 2.01 16.8V7.2C2 4 4 2 7.2 2H9.8C13 2 15 4 15 7.2Z" fill="#1E293B"/>
<path id="Vector_2" d="M18.4301 8.12002L21.7801 11.47C22.0701 11.76 22.0701 12.24 21.7801 12.53L18.4301 15.88C18.1401 16.17 17.6601 16.17 17.3701 15.88C17.0801 15.59 17.0801 15.11 17.3701 14.82L19.4401 12.75H8.75006C8.34006 12.75 8.00006 12.41 8.00006 12C8.00006 11.59 8.34006 11.25 8.75006 11.25H19.4401L17.3701 9.18002C17.2201 9.03002 17.1501 8.84002 17.1501 8.65002C17.1501 8.46002 17.2201 8.26002 17.3701 8.12002C17.6601 7.82002 18.1301 7.82002 18.4301 8.12002Z" fill="#1E293B"/>
</g>
</svg>
